<?xml version="1.0" encoding="iso-8859-1"?>
<!-- Generator: Adobe Illustrator 19.0.0, SVG Export Plug-In . SVG Version: 6.00 Build 0)  -->
<svg version="1.1" id="Layer_1" xmlns="http://www.w3.org/2000/svg" xmlns:xlink="http://www.w3.org/1999/xlink" x="0px" y="0px"
	 viewBox="0 0 512.131 512.131" style="enable-background:new 0 0 512.131 512.131;" xml:space="preserve">
<circle style="fill:#6B7F9E;" cx="256.066" cy="256" r="256"/>
<path style="fill:#596366;" d="M157.19,322.663c14.595-25.902,37.605-55.881,14.2-101.506
	C124.976,54.303,295.38,30.636,319.441,95.984c38.919,15.515,37.999,100.717,17.882,145.29c-0.92,18.408-15.252,33.66,17.487,80.994
	c-86.78,14.595-137.27,9.598-197.621,0.263V322.663z"/>
<path style="fill:#FED298;" d="M228.586,274.539c-1.578,28.401-11.571,37.21-25.508,44.705c-7.1,6.311-57.459,10.124-76.129,33.134
	c-15.515,19.328-24.062,64.164-30.11,104.004c14.463,11.571,30.241,21.563,47.071,29.715l2.761-55.092
	c0,0,3.024,38.525,10.913,47.203c1.841,1.972,2.893,7.758,3.419,15.515C190.324,505.426,222.406,512,256.066,512
	c31.951,0,62.455-5.917,90.593-16.567c0.394-8.546,1.446-15.121,3.419-17.224c7.889-8.678,10.913-47.203,10.913-47.203l2.893,57.196
	c17.356-8.021,33.529-18.013,48.518-29.584c-4.602-38.656-10.782-82.178-23.536-103.61c-16.041-26.954-68.503-29.584-75.078-34.975
	c-13.674-7.626-23.404-16.961-24.982-45.494c0,0-20.38,15.778-33.134,13.411C243.049,285.452,228.586,274.539,228.586,274.539z"/>
<path style="fill:#83CF8F;" d="M219.908,305.57c-4.339,6.18-10.124,9.993-16.83,13.543c-7.1,6.311-57.459,10.124-76.129,33.134
	c-15.515,19.328-24.062,64.164-30.11,104.004c14.595,11.571,30.373,21.563,47.203,29.847l2.63-55.223
	c0,0,5.654,41.286,10.913,47.203c1.315,1.446,2.235,7.363,2.893,15.384c29.584,11.834,61.798,18.408,95.589,18.408
	c32.082,0,62.85-5.917,91.119-16.699c0.526-8.941,1.578-15.515,3.024-17.093c5.259-5.785,10.913-47.203,10.913-47.203l2.761,57.196
	c18.671-8.678,36.027-19.46,51.936-32.214c-6.048-39.182-15.515-81.915-26.823-100.98c-16.041-26.954-68.503-29.584-75.078-34.975
	c-5.785-3.287-11.045-6.837-15.121-12.097l-37.736,72.316L219.908,305.57z"/>
<path style="fill:#75BD80;" d="M346.658,495.433c0.394-8.546,1.183-14.858,3.419-17.224c3.945-4.339,10.913-47.203,10.913-47.203
	l2.761,57.196c18.671-8.678,36.027-19.46,51.936-32.214c-5.654-37.999-14.332-79.811-26.823-100.98
	c-16.041-26.954-68.503-29.584-75.078-34.975c-5.785-3.287-11.045-6.837-15.121-12.097l-37.736,72.316V512
	c30.11-0.526,58.905-6.311,85.728-16.436V495.433z"/>
<path style="fill:#F0B97D;" d="M227.928,283.349c7.495,4.47,19.854,18.276,31.425,18.408c11.571,0.132,27.875-16.961,30.241-18.145
	c-0.263-1.578-0.394-3.287-0.526-4.996l-0.131,0.131l0,0l0,0c-0.657,0.526-20.643,16.041-33.134,13.674
	c-12.36-2.367-26.297-13.017-27.086-13.674l-0.263-0.131c-0.131,1.709-0.263,3.287-0.526,4.865V283.349z"/>
<path style="fill:#FED298;" d="M195.714,229.177c12.622,26.954,17.224,37.473,32.871,49.57c0,0,14.463,11.176,27.086,13.674
	c12.754,2.498,33.134-13.674,33.134-13.674c15.647-12.097,20.249-22.615,32.871-49.57c3.024,1.578,6.311,3.813,8.809,1.052
	c2.498-2.893,14.463-40.103,12.228-45.231c-2.104-4.996-6.443-1.446-7.495,0.394c-0.657,0.92-1.183,4.733-2.104,4.733
	c-0.789,0-1.183-1.709-2.367-5.259c-3.55-10.256-11.045-20.775-13.937-55.092c-57.064,56.538-110.315,30.636-128.855,34.449
	c-4.865,0.92-5.259,12.754-4.865,19.723c0,0.789,1.315,3.945,0.92,4.208c-0.657,0-2.498-3.024-2.893-3.287
	c-18.539-11.965,5.259,44.705,5.785,45.362C189.403,233.122,192.69,230.886,195.714,229.177z"/>
<path style="fill:#F0B97D;" d="M341.005,182.632c-2.235-1.052-4.865,1.315-5.522,2.761c-0.657,0.92-1.183,4.733-2.104,4.733
	c-0.789,0-1.183-1.709-2.367-5.259c-2.498-7.1-6.837-14.332-10.256-29.584l-23.536-8.809
	c-36.027,25.114-69.029,21.169-90.461,18.539c-3.55,2.235-7.1,4.733-10.519,7.626l16.567,27.875c0,0,2.893,4.47,7.363,2.63
	c4.47-1.841,19.46-17.487,60.22-11.571c40.76,6.048,49.833,16.567,53.909,14.332c2.235-1.183,4.865-12.622,6.837-23.273H341.005z"/>
<path style="fill:#FFE356;" d="M163.632,159.622c-10.782-85.728,58.511-115.969,93.354-115.969s106.765,31.293,93.354,115.969
	c-4.339-0.263-9.072,4.996-9.072,4.996c-103.215,9.335-65.085,9.335-168.694,0c0,0-4.602-5.259-9.072-4.996H163.632z"/>
<path style="fill:#FF7069;" d="M173.888,164.092c28.138-17.882,56.012-26.428,83.756-26.56c27.743,0.263,56.144,8.678,84.281,26.56
	l-17.882,24.719c-22.089-11.702-44.31-16.699-66.4-17.224c-22.089,0.394-44.31,5.391-66.4,17.224L173.888,164.092z"/>
<path style="fill:#F7635B;" d="M325.884,186.182l-1.841,2.63c-22.089-11.702-44.31-16.699-66.4-17.224
	c-22.089,0.394-44.31,5.391-66.4,17.224l-1.709-2.367c22.878-11.834,45.494-17.356,68.109-17.619
	c22.484,0.131,45.362,5.785,68.24,17.487V186.182z"/>
<path style="fill:#E4E7ED;" d="M159.688,493.198c-0.263-6.443-0.526-11.176-0.789-12.754
	c-13.937-15.252-13.674-49.307-13.674-49.307s16.041-18.539,28.269-41.812c19.854-2.235,80.468-0.394,80.468-0.394
	s60.614-1.841,80.468,0.394c4.602,15.515,28.269,41.812,28.269,41.812c0.526,5.128-4.076,43.258-13.017,47.86
	c-0.394,1.446-0.789,7.495-1.183,15.91c-28.664,11.045-59.825,17.224-92.302,17.224c-34.054,0-66.663-6.706-96.378-18.802
	L159.688,493.198z"/>
<g>
	<path style="fill:#FFFFFF;" d="M198.739,320.822l-7.363,99.928c-0.263,3.156-4.076,7.232-14.332,6.837
		c-10.124-0.394-8.678-8.941-8.678-8.941l9.598-91.776L198.739,320.822z"/>
	<path style="fill:#FFFFFF;" d="M321.676,322.4l-0.526,97.167c0,3.156,4.207,8.152,14.463,7.758
		c10.124-0.394,10.65-9.467,10.65-9.467l-3.287-89.804l-21.169-5.654H321.676z"/>
</g>
<g>
	<path style="fill:#E4E7ED;" d="M179.41,408.916c3.55,0,6.443,2.893,6.443,6.443s-2.893,6.443-6.443,6.443s-6.443-2.893-6.443-6.443
		S175.86,408.916,179.41,408.916z"/>
	<path style="fill:#E4E7ED;" d="M333.51,408.916c3.55,0,6.443,2.893,6.443,6.443s-2.893,6.443-6.443,6.443s-6.443-2.893-6.443-6.443
		S329.96,408.916,333.51,408.916z"/>
</g>
<g>
	<path style="fill:#596366;" d="M219.645,305.044l36.816,66.926c0,0-25.902-31.951-30.373-23.667
		c-4.47,8.284-25.639,24.193-25.639,24.193l13.674-60.483l5.654-6.969H219.645z"/>
	<path style="fill:#596366;" d="M299.456,306.227l-34.449,66.268c0,0,27.875-34.449,32.345-26.165
		c4.47,8.284,21.826,23.404,21.826,23.404l-12.885-57.59l-6.969-5.785L299.456,306.227z"/>
</g>
<path style="fill:#FCD34E;" d="M260.536,43.784c32.74,6.048,60.877,27.217,73.631,63.375c5.654,15.91,8.415,34.843,7.232,56.538
	c0.132,0.131,0.394,0.263,0.526,0.263c1.315-1.315,4.996-4.602,8.546-4.339c0.132-0.394,0.132-0.789,0.132-1.183
	C362.7,77.313,296.168,45.757,260.536,43.784z"/>
<g>
</g>
<g>
</g>
<g>
</g>
<g>
</g>
<g>
</g>
<g>
</g>
<g>
</g>
<g>
</g>
<g>
</g>
<g>
</g>
<g>
</g>
<g>
</g>
<g>
</g>
<g>
</g>
<g>
</g>
</svg>
